<svg width="17" height="29" viewBox="0 0 17 29" fill="none" xmlns="http://www.w3.org/2000/svg">
<path d="M16.5502 0.976562V4.35422C15.3852 4.35422 14.2547 4.4266 13.1725 4.56791C8.42999 5.17796 4.69389 7.04601 3.4669 9.42071C3.18773 8.87959 3.04297 8.3178 3.04297 7.73532C3.04297 4.58859 7.35121 1.94161 13.1725 1.1937C14.2547 1.05583 15.3852 0.980009 16.5502 0.980009V0.976562Z" fill="black"/>
<path d="M11.7858 14.9337V18.3113C9.69715 18.0425 7.80152 17.529 6.23332 16.8362C5.13731 16.3537 4.19983 15.7816 3.46571 15.1474C2.85911 14.6269 2.39382 14.0583 2.08018 13.462C1.80101 12.9174 1.65625 12.3556 1.65625 11.7732V8.39551C1.65625 8.97798 1.80445 9.54322 2.08018 10.0809C2.39382 10.684 2.85911 11.2493 3.46571 11.7697C4.19983 12.4073 5.13731 12.976 6.23332 13.4585C7.80497 14.1479 9.70059 14.6614 11.7858 14.9337Z" fill="black"/>
<path d="M7.66546 20.6149V23.9926C6.39712 23.6307 5.25285 23.1585 4.28781 22.6105C3.69844 22.2762 3.17112 21.9109 2.71961 21.5214C2.11302 21.001 1.64772 20.4323 1.33409 19.836C1.05491 19.2915 0.910156 18.7297 0.910156 18.1472V14.7695C0.910156 15.352 1.05836 15.9172 1.33409 16.4549C1.64772 17.0581 2.11302 17.6233 2.71961 18.1437C3.16767 18.5332 3.69499 18.8985 4.28781 19.2363C4.66349 19.45 5.06329 19.6499 5.48722 19.836C6.15931 20.129 6.88309 20.3909 7.66546 20.6149Z" fill="black"/>
<path d="M3.50266 25.6113V28.9821C1.40024 27.7964 0.125 26.2317 0.125 24.5222V21.1445C0.125 21.727 0.273202 22.2922 0.548929 22.8299C0.586842 22.9057 0.631647 22.9816 0.673006 23.0539C0.714366 23.1263 0.762618 23.2021 0.807423 23.2745C0.838443 23.3193 0.872911 23.3676 0.907377 23.4158C0.94529 23.471 0.983201 23.5192 1.02456 23.5744C1.34165 23.9845 1.73456 24.374 2.1964 24.7393C2.25844 24.791 2.32392 24.8393 2.38941 24.8875C2.47212 24.9496 2.55484 25.0116 2.64446 25.0736C2.73062 25.1357 2.81679 25.1943 2.90985 25.2529C2.99601 25.3115 3.07873 25.3632 3.16834 25.4183C3.27518 25.4838 3.38892 25.5493 3.49921 25.6148L3.50266 25.6113Z" fill="black"/>
</svg>
